<?xml version="1.0" standalone="no"?>
<!DOCTYPE svg PUBLIC "-//W3C//DTD SVG 20010904//EN"
 "http://www.w3.org/TR/2001/REC-SVG-20010904/DTD/svg10.dtd">
<svg version="1.0" xmlns="http://www.w3.org/2000/svg"
 width="512.000000pt" height="512.000000pt" viewBox="0 0 512.000000 512.000000"
 preserveAspectRatio="xMidYMid meet">
<metadata>
Created by potrace 1.14, written by Peter Selinger 2001-2017
</metadata>
<g transform="translate(0.000000,512.000000) scale(0.100000,-0.100000)"
fill="#000000" stroke="none">
<path d="M2517 4754 c-1 -1 -54 -4 -117 -7 -63 -4 -124 -8 -135 -11 -11 -2
-42 -7 -70 -10 -55 -8 -254 -55 -270 -64 -5 -3 -16 -7 -25 -8 -21 -2 -109 -33
-142 -50 -16 -8 -28 -12 -28 -9 0 20 -467 -245 -500 -284 -3 -3 -27 -24 -55
-46 -61 -48 -141 -123 -204 -189 -25 -27 -55 -58 -66 -70 -11 -12 -46 -55 -78
-96 -31 -41 -61 -80 -67 -87 -26 -32 -141 -228 -175 -298 -84 -175 -152 -376
-179 -530 -3 -16 -8 -41 -11 -55 -3 -14 -8 -45 -11 -70 -2 -25 -7 -56 -9 -70
-6 -32 -7 -427 -1 -457 3 -12 7 -50 11 -84 4 -35 8 -66 10 -69 2 -3 6 -23 9
-45 25 -157 114 -414 205 -589 188 -361 465 -657 816 -871 55 -34 121 -70 147
-81 27 -10 48 -22 48 -26 0 -5 5 -8 10 -8 6 0 29 -9 53 -19 70 -32 168 -68
242 -90 106 -31 255 -62 266 -56 5 4 9 2 9 -2 0 -5 15 -10 34 -11 18 -1 64 -7
102 -12 66 -8 421 -6 474 3 14 3 48 8 75 11 27 4 81 14 119 22 39 9 78 17 86
19 65 14 185 51 250 78 14 6 27 11 30 12 10 3 75 33 155 71 195 93 387 229
550 389 137 136 167 169 246 275 122 163 234 371 298 554 34 96 86 285 96 351
4 22 9 51 11 65 24 138 29 405 10 572 -6 53 -11 123 -11 155 l0 58 -655 0
c-646 0 -656 -1 -739 -23 -46 -12 -121 -38 -166 -57 l-82 -35 -105 50 c-152
73 -271 102 -440 107 -115 4 -153 2 -239 -17 -253 -54 -438 -157 -619 -347
l-85 -88 -86 -2 c-151 -5 -298 -54 -430 -143 -67 -46 -160 -136 -199 -193 -42
-62 -49 -52 -67 83 -9 74 -10 348 0 435 10 101 74 357 97 390 4 6 17 38 29 72
13 34 43 97 67 139 24 43 44 79 44 82 0 10 91 134 152 209 197 238 462 429
724 523 32 12 66 24 74 27 8 3 20 7 25 8 6 2 42 12 80 23 68 19 148 36 230 47
131 19 407 9 570 -20 114 -20 428 -133 475 -170 8 -7 35 -23 60 -36 170 -91
396 -290 513 -453 13 -17 19 -18 78 -7 69 13 94 19 94 21 0 1 14 3 32 6 18 2
74 13 125 24 51 11 104 21 118 24 31 5 29 13 -22 90 -110 164 -291 362 -444
486 -260 211 -636 388 -944 443 -30 6 -84 15 -125 22 -44 7 -342 23 -348 19z"/>
</g>
</svg>
